<svg xmlns="http://www.w3.org/2000/svg" id="Layer_1" data-name="Layer 1" viewBox="0 0 3000 3000"><path d="M2992.74612,1507.25388H13.886a7.25388,7.25388,0,0,1,0-14.50776H2992.74612a7.25388,7.25388,0,1,1,0,14.50776Z"/><rect width="193.989" height="504.041" x="565.595" y="1532.124" fill="#ed1c24"/><rect width="193.989" height="504.041" x="390.052" y="961.348" fill="#8dc63f"/><rect width="193.989" height="504.041" x="1233.16" y="961.348" fill="#8dc63f"/><rect width="193.989" height="504.041" x="1456.372" y="793.472" fill="#8dc63f"/><rect width="193.989" height="504.041" x="1682.486" y="545.804" fill="#8dc63f"/><rect width="193.989" height="504.041" x="1908.807" y="961.348" fill="#8dc63f"/><rect width="193.989" height="504.041" x="164.352" y="733.783" fill="#8dc63f"/><rect width="193.989" height="504.041" x="789.429" y="1879.067" fill="#ed1c24"/><rect width="193.989" height="504.041" x="1010.466" y="1532.124" fill="#ed1c24"/><rect width="193.989" height="504.041" x="2133.366" y="1532.124" fill="#ed1c24"/><rect width="193.989" height="504.041" x="2373.988" y="1851.088" fill="#ed1c24"/><rect width="193.989" height="504.041" x="2609.325" y="2080.518" fill="#ed1c24"/><path fill="#26355d" d="M2878.33988,2968.18546H58.03105A58.03074,58.03074,0,0,1,0,2910.15442V89.84558a58.031,58.031,0,0,1,116.06209,0V2852.12337H2878.33988a58.031,58.031,0,1,1,0,116.06209Z"/></svg>