<svg id="Layer_1" data-name="Layer 1" xmlns="http://www.w3.org/2000/svg" viewBox="0 0 3000 3000"><path d="M2992.74612,1507.25388H13.886a7.25388,7.25388,0,0,1,0-14.50776H2992.74612a7.25388,7.25388,0,1,1,0,14.50776Z"/><rect x="565.59544" y="1532.12433" width="193.9895" height="504.04109" fill="#ed1c24"/><rect x="390.05153" y="961.34754" width="193.9895" height="504.04109" fill="#8dc63f"/><rect x="1233.15973" y="961.34754" width="193.9895" height="504.04109" fill="#8dc63f"/><rect x="1456.372" y="793.47202" width="193.9895" height="504.04109" fill="#8dc63f"/><rect x="1682.48583" y="545.8038" width="193.9895" height="504.04109" fill="#8dc63f"/><rect x="1908.80691" y="961.34754" width="193.9895" height="504.04109" fill="#8dc63f"/><rect x="164.35221" y="733.78294" width="193.9895" height="504.04109" fill="#8dc63f"/><rect x="789.42948" y="1879.06708" width="193.9895" height="504.04109" fill="#ed1c24"/><rect x="1010.46559" y="1532.12433" width="193.9895" height="504.04109" fill="#ed1c24"/><rect x="2133.36633" y="1532.12433" width="193.9895" height="504.04109" fill="#ed1c24"/><rect x="2373.98792" y="1851.08783" width="193.9895" height="504.04109" fill="#ed1c24"/><rect x="2609.32453" y="2080.51771" width="193.9895" height="504.04109" fill="#ed1c24"/><path d="M2878.33988,2968.18546H58.03105A58.03074,58.03074,0,0,1,0,2910.15442V89.84558a58.031,58.031,0,0,1,116.06209,0V2852.12337H2878.33988a58.031,58.031,0,1,1,0,116.06209Z" fill="#26355d"/></svg>